<svg fill="none" height="92" viewBox="0 0 92 92" width="92" xmlns="http://www.w3.org/2000/svg"><path d="m31.0774 47.0305c4.9738-1.0696 4.2955-7.0262 4.1498-8.3278-.2452-2.0076-2.6025-5.5133-5.8018-5.2332-4.0265.3598-4.6144 6.1821-4.6144 6.1821-.5455 2.6963 1.3015 8.4518 6.2664 7.3789zm9.2366-9.9852c2.7456 0 4.9649-3.1672 4.9649-7.0796s-2.2193-7.0751-4.9649-7.0751c-2.7469 0-4.9719 3.1621-4.9719 7.0751 0 3.9124 2.2244 7.0796 4.9719 7.0796zm11.8371.4657c3.6755.4818 6.0302-3.4427 6.5013-6.4166.4813-2.9699-1.8933-6.4242-4.4893-7.0172-2.6076-.6-5.8627 3.5783-6.156 6.3041-.3575 3.3343.4723 6.6588 4.144 7.1297zm14.5551 4.9962c0-1.4223-1.1764-5.7099-5.5579-5.7099-4.3898 0-4.9693 4.046-4.9693 6.9048 0 2.7284.2271 6.5342 5.6785 6.416 5.4455-.1208 4.8487-6.1789 4.8487-7.6109zm-5.5579 12.4863s-5.6811-4.3994-8.9978-9.1559c-4.5022-7.0134-10.8912-4.1566-13.0264-.5956-2.1294 3.5706-5.4398 5.8256-5.9134 6.4243-.4781.5865-6.862 4.0396-5.4456 10.345 1.4197 6.3004 6.398 6.1809 6.398 6.1809s3.6691.3597 7.9241-.5936c4.2641-.9502 7.9325.2332 7.9325.2332s9.9464 3.3387 12.6644-3.0856c2.7212-6.4192-1.5351-9.7521-1.5351-9.7521" fill="#2319dc"/><path d="m41.1998 48.8594v4.2323h-3.4451s-3.4432.2859-4.6485 4.1925c-.4204 2.6083.371 4.1443.5089 4.4726.1393.3276 1.2515 2.2356 4.0465 2.7958h6.4647v-15.647zm-.052 13.1248h-2.6044s-1.8143-.0944-2.3669-2.1855c-.2849-.9264.0424-1.9967.1861-2.4175.1316-.4214.7407-1.3954 1.996-1.7705h2.7886zm4.5631-8.5128v8.2385s.1348 2.05 3.0228 2.7971h7.4396v-11.0369h-3.2108v8.2854h-3.0639s-.9794-.1426-1.1636-.9302v-7.4028z" fill="#fff"/></svg>